<svg version="1.1" id="Layer_1" xmlns="http://www.w3.org/2000/svg" xmlns:xlink="http://www.w3.org/1999/xlink" x="0px" y="0px" style="enable-background:new 0 0 1999.44 1999.44;" xml:space="preserve" viewBox="27.72 832.88 1944.03 333.68">
<style type="text/css">
	.st0{fill:#6480FE;}
	.st1{fill:#333333;}
</style>
    <g>
	<g>
		<g>
            <g>
				<g>
					<path class="st1" d="M85.18,1013.77c-26.97,49.07-50.39,92.08-52.61,97.53c-5.28,12.96-10.53,33.6,9.12,46.56       c17.87,11.79,30.72,8.16,30.72,8.16l48.02-88.85L85.18,1013.77z"/>
                    <path class="st1" d="M393.53,1108.9c-7.68-14.88-131.52-243.37-135.36-251.53c-3.84-8.16-15.84-24.48-42.24-24.48       c-26.4,0-37.44,12-45.12,25.92c-2.65,4.81-19.36,34.91-40.3,72.78l34.42,63.24l48.61-89.94l145.92,261.13       C398.81,1157.86,401.21,1123.78,393.53,1108.9z"/>
				</g>
			</g>
		</g>
	</g>
</g>
</svg>