<svg version="1.1" id="Layer_1" xmlns="http://www.w3.org/2000/svg" xmlns:xlink="http://www.w3.org/1999/xlink" x="0px" y="0px" style="enable-background:new 0 0 1999.44 1999.44;" xml:space="preserve" viewBox="27.72 832.88 1944.03 333.68">
<style type="text/css">
	.st0{fill:#6480FE;}
	.st1{fill:#FAF9F6;}
</style>
<g>
	<g>
		<g>
			<g>
				<g>
					<path class="st0" d="M101.43,912.94l108.74,197.96l48.92-88.74l26.17,46.65c0,0-34.61,62.83-42.1,75.66       c-10.62,16.36-19.57,20.19-33.56,20.48c-10.81,0.23-22.88-5.22-36.41-26.74c-11.43-18.17-93.79-171.84-98.51-182.84       C68.25,940.36,71.55,920.45,101.43,912.94z"/>
					<path class="st0" d="M351.76,935.77c3.47,12.92-12.89,34.48-12.89,34.48l-25.13-44.79l5.26-12.34       C318.99,913.12,343.8,906.17,351.76,935.77z"/>
				</g>
			</g>
			<g>
				<g>
					<path class="st1" d="M85.18,1013.77c-26.97,49.07-50.39,92.08-52.61,97.53c-5.28,12.96-10.53,33.6,9.12,46.56       c17.87,11.79,30.72,8.16,30.72,8.16l48.02-88.85L85.18,1013.77z"/>
					<path class="st1" d="M393.53,1108.9c-7.68-14.88-131.52-243.37-135.36-251.53c-3.84-8.16-15.84-24.48-42.24-24.48       c-26.4,0-37.44,12-45.12,25.92c-2.65,4.81-19.36,34.91-40.3,72.78l34.42,63.24l48.61-89.94l145.92,261.13       C398.81,1157.86,401.21,1123.78,393.53,1108.9z"/>
				</g>
			</g>
		</g>
		<g>
			<g>
				<path class="st1" d="M438.37,1046.65c0-73.19,41.1-113,98.72-113c20.76,0,36.86,4.71,51.69,13.7v-95.03h68.22v288.5h-58.9      l-3.81-17.12c-16.52,14.12-36.01,21.4-63.13,21.4C472.27,1145.1,438.37,1119.42,438.37,1046.65z M588.79,1079.61v-82.18      c-9.75-8.99-22.46-13.27-36.86-13.27c-28.81,0-44.07,23.12-44.07,62.93c0,38.95,14.41,47.94,42.79,47.94      C565.91,1095.02,578.2,1089.88,588.79,1079.61z"/>
				<path class="st1" d="M697.25,1039.37c0-67.63,36.02-105.73,113.13-105.73c77.54,0,113.56,38.1,113.56,105.73      c0,68.49-35.59,105.73-113.56,105.73C732.84,1145.1,697.25,1107.86,697.25,1039.37z M854.44,1039.37      c0-36.81-12.71-51.79-44.07-51.79c-30.93,0-43.64,14.98-43.64,51.79c0,37.24,12.71,51.8,43.64,51.8      C841.73,1091.17,854.44,1076.62,854.44,1039.37z"/>
				<path class="st1" d="M962.05,937.93h64.05l2.15,17.98c18.48-13.27,41.26-22.26,67.91-22.26c27.51,0,41.7,8.56,50.29,23.54      c18.91-13.7,41.7-23.54,73.93-23.54c47.28,0,69.2,24.4,69.2,74.48v132.69h-68.34v-124.56c0-22.26-9.03-31.68-30.09-31.68      c-13.33,0-26.65,5.56-35.25,15.41c1.29,6.42,1.29,11.56,1.29,19.26v121.57h-64.48V1015.4c0-20.55-5.59-30.82-25.79-30.82      c-14.18,0-27.08,8.56-37.4,18.41v137.83h-67.49V937.93z"/>
				<path class="st1" d="M1334.69,1081.32c0-41.52,27.97-66.77,83.9-66.77h55.93v-4.71c0-20.55-11.02-28.68-48.3-28.68      c-22.03,0-46.19,3.85-67.37,10.7v-44.52c19.49-7.7,49.57-13.7,81.35-13.7c61.86,0,99.57,24.4,99.57,80.47v126.7h-59.74      l-3.39-17.12c-14.83,13.7-36.87,21.4-70.76,21.4C1367.32,1145.1,1334.69,1124.56,1334.69,1081.32z M1474.52,1083.03v-28.68      h-48.3c-20.34,0-30.08,7.7-30.08,24.4c0,14.98,9.74,23.97,31.35,23.97C1449.1,1102.72,1464.77,1094.59,1474.52,1083.03z"/>
				<path class="st1" d="M1607.99,1072.76v-82.61h-27.12v-52.22h27.12v-42.38l68.22-18.41v60.78h48.72l-2.97,52.22h-45.76v77.9      c0,19.69,9.32,26.11,28.81,26.11c8.47,0,16.1-1.28,25-4.28v46.66c-13.98,5.99-29.24,8.56-49.57,8.56      C1630.45,1145.1,1607.99,1117.71,1607.99,1072.76z"/>
				<path class="st1" d="M1766.22,1039.37c0-64.63,35.17-105.73,105.08-105.73c63.56,0,100.42,35.96,100.42,91.6v36.38h-142.37      c6.35,26.96,28.81,35.95,68.64,35.95c22.03,0,47.03-4.28,62.29-10.7v44.95c-19.49,8.99-46.19,13.27-77.96,13.27      C1812.4,1145.1,1766.22,1110,1766.22,1039.37z M1912.4,1021.82v-8.99c0-19.69-10.59-32.53-38.98-32.53      c-32.62,0-44.06,13.27-44.06,41.52H1912.4z"/>
			</g>
		</g>
	</g>
</g>
</svg>