<svg version="1.1" id="Layer_1" xmlns="http://www.w3.org/2000/svg" xmlns:xlink="http://www.w3.org/1999/xlink" x="0px" y="0px" style="enable-background:new 0 0 1999.44 1999.44;" xml:space="preserve" viewBox="27.72 832.88 1944.03 333.68">
<style type="text/css">
	.st0{fill:#6480FE;}
	.st1{fill:#333333;}
</style>
<g>
	<g>
		<g>
			<g>
				<g>
					<path class="st0" d="M101.43,912.94l108.74,197.96l48.92-88.74l26.17,46.65c0,0-34.61,62.83-42.1,75.66       c-10.62,16.36-19.57,20.19-33.56,20.48c-10.81,0.23-22.88-5.22-36.41-26.74c-11.43-18.17-93.79-171.84-98.51-182.84       C68.25,940.36,71.55,920.45,101.43,912.94z"/>
					<path class="st0" d="M351.76,935.77c3.47,12.92-12.89,34.48-12.89,34.48l-25.13-44.79l5.26-12.34       C318.99,913.12,343.8,906.17,351.76,935.77z"/>
				</g>
			</g>
			<g>
				<g>
					<path class="st1" d="M85.18,1013.77c-26.97,49.07-50.39,92.08-52.61,97.53c-5.28,12.96-10.53,33.6,9.12,46.56       c17.87,11.79,30.72,8.16,30.72,8.16l48.02-88.85L85.18,1013.77z"/>
					<path class="st1" d="M393.53,1108.9c-7.68-14.88-131.52-243.37-135.36-251.53c-3.84-8.16-15.84-24.48-42.24-24.48       c-26.4,0-37.44,12-45.12,25.92c-2.65,4.81-19.36,34.91-40.3,72.78l34.42,63.24l48.61-89.94l145.92,261.13       C398.81,1157.86,401.21,1123.78,393.53,1108.9z"/>
				</g>
			</g>
		</g>
	</g>
</g>
</svg>